/* XPM */
static char *b5a0f02c88da45899c783d2b8852cde264QpoAGUHdCxlB19[] = {
/* columns rows colors chars-per-pixel */
"50 50 133 2 ",
"   c #121E2D",
".  c #15212F",
"X  c #1B252F",
"o  c #162331",
"O  c #1A2634",
"+  c #1C2936",
"@  c #1E2A39",
"#  c #212B37",
"$  c #212D3C",
"%  c #24313E",
"&  c #29333F",
"*  c #263241",
"=  c #2A3644",
"-  c #2C3946",
";  c #2E3A49",
":  c #313D4C",
">  c #34414E",
",  c #39434F",
"<  c #364251",
"1  c #394654",
"2  c #3C4856",
"3  c #3E4A59",
"4  c #414E5C",
"5  c #43515E",
"6  c #44505E",
"7  c #45515F",
"8  c #44525F",
"9  c #44515E",
"0  c #435060",
"q  c #445060",
"w  c #455161",
"e  c #455360",
"r  c #465260",
"t  c #475361",
"y  c #455262",
"u  c #465262",
"i  c #475363",
"p  c #475560",
"a  c #465461",
"s  c #475464",
"d  c #465665",
"f  c #465261",
"g  c #485460",
"h  c #485462",
"j  c #495563",
"k  c #485663",
"l  c #4B5763",
"z  c #485464",
"x  c #485565",
"c  c #495565",
"v  c #4A5664",
"b  c #4B5765",
"n  c #495666",
"m  c #4A5666",
"M  c #4A5767",
"N  c #4B5767",
"B  c #495564",
"V  c #4A5865",
"C  c #4B5966",
"Z  c #4C5866",
"A  c #4D5967",
"S  c #4C5A67",
"D  c #4C5966",
"F  c #4B5868",
"G  c #4C5868",
"H  c #4D5969",
"J  c #4D5B68",
"K  c #4E5A68",
"L  c #4F5B69",
"P  c #4D5A6A",
"I  c #4E5A6A",
"U  c #4E5B6B",
"Y  c #4F5B6B",
"T  c #4E5C69",
"R  c #4F5D6A",
"E  c #4D5A69",
"W  c #505C68",
"Q  c #505C6A",
"!  c #515D6B",
"~  c #505C6C",
"^  c #515D6D",
"/  c #515F6C",
"(  c #525E6C",
")  c #535F6D",
"_  c #515E6E",
"`  c #525E6E",
"'  c #525F6F",
"]  c #535F6F",
"[  c #515E6C",
"{  c #52606D",
"}  c #53616E",
"|  c #54606E",
" . c #55616F",
".. c #55616F",
"X. c #546070",
"o. c #556171",
"O. c #566270",
"+. c #576371",
"@. c #566272",
"#. c #566373",
"$. c #576373",
"%. c #566471",
"&. c #556271",
"*. c #586472",
"=. c #596573",
"-. c #586474",
";. c #586575",
":. c #596575",
">. c #5A6674",
",. c #5B6775",
"<. c #5A6676",
"1. c #5A6777",
"2. c #596574",
"3. c #5A6873",
"4. c #5C6876",
"5. c #5C6A77",
"6. c #5D6975",
"7. c #5D6979",
"8. c #5E6A78",
"9. c #5F6B79",
"0. c #5D6979",
"q. c #616D7B",
"w. c #626E7A",
"e. c #606C7C",
"r. c #636F7D",
"t. c #636F7D",
"y. c #64707E",
"u. c #66727E",
"i. c #667280",
"p. c #6A7684",
"a. c #6C7886",
"s. c #6F7B89",
"d. c #707C8C",
/* pixels */
": 5 J T C < 3 8 p C 7 1 } 2 2 C 2 < p j ..e < r 4 v W 4 4 ) , 4 s < 0 0 U P 0 < y y x M < x y F P 0 ",
"> } p T %.e 8 } C 4 = ; 5.8 3 A C 2 / / W W 4 J Q r 1 * 1 r., j U 0 0 P P #.y 0 U F M : < n n P ' y ",
". < p 1 3 3 % > & @ . * p > - 5 : O 4 3 1 A = - : % + O : b = : y * * F 0 0 0 * < ; @ O @ ; 3 0 0 y ",
"$ * > : j p = 3 - : < > 5 2 @ - = = - > > W , > 1 * : : 1 r - * ; $ * ; ; < #.* < < * 3 * @ : : 3 F ",
"O $ X $ : % 7 ..j 7 W % : 3 > < 3 $ @ O % : ; W A 4 ) 4 $ 1 < , 3 < * O @ ; ; < #.M 3 #.= @ @ @ ; ; ",
"@ A 4 1 ..3 : j l < A o O + 4 7 4 & >.< 7 ) : < l 4 4 3 . o - 4 x ; 3 s < U x ; 0 U < M ; x x < F n ",
"- j 4 % 4 ; @ 4 > = 7 % % + 3 7 4 > A : = 7 $ & 7 * 1 1 * $ # 4 x 3 0 x = 1 3 O ; 0 @ x : 0 0 * 3 < ",
": 7 7 - 6 = $ + O & 4 @ = # @ 4 1 < W 1 > 4 O $ @ O : < + = + - 0 : 3 _ ; 3 < O * @ @ < < 0 U ; 3 < ",
"> 4 6 7 3.4 % - # : j : { 2 % : - , l 1 W >.: - & $ 4 1 1 O.= = ; = 3 3 < i.P * : @ = x : 3 i 1 #.M ",
"& j 7 = 7 5 O % $ > 8 $ 7 p W 3.4 : Q > : A : O $ $ 4 4 & j 7 O.i.1 < i.= ; F * $ * * U : 3 F : 0 s ",
"@ 7 4 = ..3 3 %.4 > W > { 3 > 8 4 * ) : > W > A >.: 7 4 2 | 1 1 y : @ i.* 0 0 < o.~ : U ; 3 H ; 3 0 ",
"% > , : 8 > ; 1 4 ; > - 5 ; > - > = < : < 7 - : 1 4 - - : 4 - : : ; = < ; 0 0 * : 0 : : : : 4 : 0 0 ",
"$ = = > 2 % ; = $ = ; % = > - > = % - - < < = : % % = - & : : - * @ =   * < < * : * = : * ; ; = < ; ",
"4 +.{ { S - %.u.3 ....k T { 3.w.l l *.....3 - p...4 >.W j | A w.i.0 i.i.i.i.; 0 d.y 0 i.4 $.o.^ F 0 ",
"& 5 2 > @ o > V = 3 S = 2 3 3 8 3 : 4 3 - O $ 7 3 : 7 7 % 4 4 4 3 ; < 0 < $ o = M ; < 0 q 1 4 < * O ",
"+ ; * o % % 8 k # 2 < o % 3 1 8 j + : # X $ - 7 3 # 4 - O - 4 , i.; * ; O @ $ 1 P ; * 3 * $ : # O @ ",
": A A 4 ^ 1 ; w : = : * @ @ * : 1 4 Q r 4 ) : : 4 : = 1 * O $ * 4 : j ) 4 j v = 7 : ; : < 7 ) 4 d U ",
": 4 4 4 v ; # $ : 4 m * : ; : 1 - 4 4 7 1 N @ * = 3 q 4 # 1 * : 1 - 6 6 4 4 4   * - r A 4 1 r 7 2 d ",
"$ 4 ^ ; Z : #   : q N : ' s : <.l % 7 A = X.* @ o 1 i q : <.1 4 q.; ; Z 4 1 4 # O & 4 r : : q 4 < U ",
"  # * X 1 ; # # * 4 m : 0 s @ ; -   $ $ @ 3 $ * O : 0 z : w 1 O : %   * # & 4 O $ O 1 j <   * # * 0 ",
"# = + * 4 : , 4 . * : ; 0 G 4 i.4 # $ $ : 4 : 3 :   = - < A 4 v q.; & * # : 4 - w $ # : $ & $ # > d ",
"  # # * Z ; 4 Q : ^ i : w 3 3 c 4 . * + : b = N 7 w A 4 : l 1 4 Q : o # # 4 4 ; W 1 7 ] :   $ # 2 F ",
"* 4 4 * v 4 1 Z : q ^ ; 3 G * w 4 - 7 : = W : v w 4 l j * A 4 - Q : : 4 ; : 6 ; A 4 7 W 4 : 7 : 3 d ",
"- b I 1 Z : 4 Z ; 4 4 ; 3 G : z 4 < W A 1 l 1 z 1 ; 4 4 = r 4 : Z : r ^ 4 4 4 4 A - : 4 : 4 W j 1 y ",
"+ * & * = + $ - & $ $ * = * * : = $ * & * * * * = * $ = $ - * = : * * * * * = # - * * $ * = = : @ = ",
": j 7 1 4 l A W 4 4 b v ^ w ; $.4 1 v 4 1 w z I ] : w j I W : 1 $.: 4 m : w u i Q b < r u H H : 3 0 ",
": j ] 4 4 7 A W 4 4 W j w = $ o.Q < I @.1 u z H I q m I A 4 = : i.3 3 P Y : Y c ) r 4 ) z z : * F ` ",
"O 4 4 O = 4 4 4 w # : - @   * q 4 $ q 2 O : 4 4 m : $ : $ O   - i = : s ; @ q 4 1 Q * * : $ o   ; 1 ",
"# - : $ $ : : 4 v ; w : = 4 : 4 4 $ : - $ * : = I 1 1 r = , 4 : P < * : * * ; : : X.: 2 0 = 3 ; * ; ",
": 1 4 - $ O # - = 4 I j 4 $.= = : 4 1 4 $ $ O * : ; 4 b 6 j r # : : 3 0 : O * O ; ; : N P 3 #.3 1 0 ",
": 7 b * j l 1 O.m : 4 I : I $ O   4 6 7 * 0.1 4 @.1 : v v 1 4 O o * 0 M 3 : @.: U H : 3 _ < d 3 0 M ",
"* 4 j , 4 7 $ 1 : o : : * G $ = # : 7 7 : u 1 * q * # < - - 4 # = @ 1 x 0 1 N ; ; 4 O * 1 * 3 < 3 d ",
"& 4 1 : 3 U : P : o @ O $ 2 % = * o 1 3 : F y : P - O @ O - 1 # : @ $ 2 1 1 W 1 4 j # O o + : : @ 2 ",
"- l - > y 0 0 #.y $ - + > 5 1 T d $ < : : d 3 y ;.: * = + 4 4 : @.: : : ; 1 v 1 ] I * = * = j : ; > ",
"7 w.O.: 3 P ; 3 d + % % = P - 2 0 d i.U = F 0 : z 1 o = $ 1 4 - N u ~ 0.4 ; I 1 4 b & $ & $ j 4 ' ' ",
"> ( 7 - 1 X.* y 3 1 ;.d > } < P 3 ; 3 0 * d 3 ; v < q ;.4 < W 1 H : 1 4 < ; ^ : , j : ) *.: j 1 2 d ",
"> 9 & - , < = 0 1 % > , ; < * < : ; ; : * < 1 ; 4 - : : : : , * 4 = ; ; : * 4 = , 4 $ : 1 - : : ; 1 ",
"4 7 - , > = ; : > > - = > * - < = ; ; : 1 1 @ : : : < - : : * : : ; : ; : : ; = < : : < * : : 1 < = ",
"l u.l w.6.e ` ` R R 2 2 s.v 0 ;.d M ` ' i.' y #.) Q J ; W a.4 b X.0 U ~ <.i.G u ..) Q 4 , O.] =.;.F ",
"& 7 4 4 3 2 : 3 > % O = e < : e 1 % 3 0 3 0 : < 1 : # + < r - 1 z = : 4 4 4 w = 4 < - # O , 4 4 0 3 ",
"$ < 3 < d 3 $ > @ % & > J > + 2 ; o : 3 < i.; * ; O % = 2 T % - : @ @ 1 1 4 ..$ : $ + * # % 1 < s P ",
"= < O $ 1 > 0 #.d 3 } % 2 3 > - : @ @ @ $ : : _ | 4 ..7 = 4 < = : ; @ @ & - < 1 ) W 3 >.; + # % : 3 ",
"* { = < 0 > 2 0 V 1 p + @ % 2 d 3 * 3 ; 1 0 ; 3 8 3 7 , O # : 4 U ; : < - 7 : > 4 A , ..* < : : 3 : ",
"1 u.3 < _ 1 * d 3 > V + % + 3 3 0 1 ' 1 3 ' * < l > 4 3 $ + % 7 H : q ) : r Q $ 4 7 - A > A j : P d ",
"3 S 3 # > *   $ # % 3 . % . > 3 y 1 d : $ > . . $ O > > O $ @ < N 3 3 U $ - - . O $ + 1 > 4 j $ : = ",
"1 5.3 k w.2 * * + > 2 > V > O > : < U 3 ....: & % % 1 > < C O # : : 3 F 4 6.r $ - # = 7 1 4 l 4 ;.N ",
"1 3.3 , 3 3 + $ + 2 5 % R 3 d 5.3 : J < 1 W % @ @ # 7 1 ; T 2 { #.: 3 i : 4 v + # + - r : 4 7 : u P ",
"> 3.3 = d 3 1 d > > k > V 3 3 V 3 = / : : j 1 7 7 - 6 4 > T 2 8 X.: : ^ % 4 4 < r 4 & W - 3 j * N N ",
"> W 2 > V 3 , J 8 , 3 > 8 2 1 > 1 ; 8 1 2 p > 8 V 2 3 < 2 8 > 1 1 : : y ; 0 y : d F : 4 ; < 4 : N 4 ",
"# & & & > % & % = $ = + ; - = % = @ & % - 2 % = % & $ $ % > - % * * $ ; $ : : * = ; * * $ * ; * : ; "
};
