/* XPM */
static char *e13a6fda97814283bc1c38a59ad3a9523h74VHZyLHJFRhhy[] = {
/* columns rows colors chars-per-pixel */
"50 50 56 1 ",
"  c None",
". c #4F7D56",
"X c #517F58",
"o c #508057",
"O c #53845A",
"+ c #56895E",
"@ c #5B895F",
"# c #5C8663",
"$ c #5A8D61",
"% c #5C9365",
"& c #5F9868",
"* c #618D67",
"= c #658D6C",
"- c #609667",
"; c #65956C",
": c #629B6B",
"> c #6A9270",
", c #6A9B71",
"< c #65A16E",
"1 c #67A470",
"2 c #6AA572",
"3 c #6BA974",
"4 c #6FAB78",
"5 c #75AB76",
"6 c #79AC77",
"7 c #73A57A",
"8 c #74AD7C",
"9 c #7DAD78",
"0 c #77B07E",
"q c #84AE7A",
"w c #88AF7B",
"e c #86B07C",
"r c #8AB07C",
"t c #7CAE81",
"y c #77B080",
"u c #7CB283",
"i c #81B385",
"p c #8FB381",
"a c #84B589",
"s c #8BB58D",
"d c #87B98C",
"f c #8ABA8E",
"g c #91B483",
"h c #95B788",
"j c #9ABA8D",
"k c #8EBC91",
"l c #92BE94",
"z c #99BF98",
"x c #A0BF94",
"c c #95C096",
"v c #97C298",
"b c #9CC39B",
"n c #A0C69F",
"m c #A9C49E",
"M c #A2C7A0",
"N c #A5C9A3",
/* pixels */
"                                                  ",
"                                                  ",
"                                                  ",
"                                                  ",
"                                                  ",
"                                                  ",
"                                                  ",
"                                                  ",
"                                                  ",
"                                                  ",
"                                 d04              ",
"                               840333y            ",
"                            d43dbNNNk30           ",
"                          u88dbNNNNNNcu3u         ",
"                        y4ucNNNNNNNNNNNd30        ",
"                     u08avNNNNNNNNNNNNNNvy30      ",
"                   u48ukkkccvNNNNNNNNNNNNNi34     ",
"                uy408332333<34fbNNNNNNNNNNNb03u   ",
"              a38af4838iu233133ubNNNNNNNNNNNN035  ",
"            30ulMk43zvns833313338bNNNNNNNNNNNu339 ",
"         d44dbNNN83uNlikiualca433fNNNNNNNNNbd455e ",
"       84ucMNNNNN33uvNlzzzzidNd33uNNNNNNbk0359q96 ",
"     03ucNNNNNNNN3312ti8,2alln832uNNNNbf035ee956r ",
"  040kbNNNNNNNNNNu1323333ilnsd132lNNlu356ee59qr66 ",
" 333aNNNNNNNNNNNNb8131333ta8,<22ibku46qq966qq969e ",
"*+<2aNNNNNNNNNNNNNMa311333222<7uu456q966qw669qq66 ",
",$O&3ubNNNNNNNNNNNNNza97<:28988559q969qq96qqq66qe ",
"#O%++<0dNNNNNNNNNNNNNNNnbbli846eq66qq966qq669q669 ",
"%%O$$O&3inNNNNNNNNNNNNNNvu856qq66qq669qq69qq969qq ",
"$o&+O&o+14vNNNNNNNNNNNf835qwq49wq66qw959qr66qr969 ",
";%O+%O$$O&3uMNNNNMNza846qq669w966qq66qq966qq669ph ",
";o%$o%+O&++18kllNky45qq969qq66qq966qq66qq966qg    ",
"%%O+%o$$O$$O<333835qq969qq66qq969qq66qq959qg      ",
"7X$&.%$o&+O&o+33qwe56qr659qq66qw959wq56qrx        ",
"%%+O%++%O$$O&++eq69qq66qw966qq66qqq69rp           ",
" #+&o$$X%$O%OO<6qw959qq66qw95qqq66qqj             ",
"  =#%+O&O+&o%%+q66qwq66qq66qqq66qwj               ",
"    .$&.%$.&Oo:6ww63qwq56wr659rh                  ",
"     #O%OO&O+%$q66qq966qq66erx                    ",
"       X+&o%+X:qwq65qqq56wp                       ",
"        #O&O+%@e66qq65qwg                         ",
"          X%%.%qrq56rrn                           ",
"           =o%%969rg                              ",
"            >O&qrg                                ",
"              @m                                  ",
"                                                  ",
"                                                  ",
"                                                  ",
"                                                  ",
"                                                  "
};
