/* XPM */
static char *fd095a9855834a2f9ca3727c6a3b0e88RavECVDsZolhumCw[] = {
/* columns rows colors chars-per-pixel */
"50 50 116 2 ",
"   c None",
".  c #010101",
"X  c #0D0D0C",
"o  c #140C05",
"O  c #1A0E04",
"+  c #120F0C",
"@  c #1F1006",
"#  c #15100C",
"$  c #1B110A",
"%  c #151414",
"&  c #1A1513",
"*  c #1C1916",
"=  c #1C1B1B",
"-  c #281406",
";  c #24160A",
":  c #2B1709",
">  c #2E1A0B",
",  c #351A07",
"<  c #311C0D",
"1  c #3C1E08",
"2  c #2C1C10",
"3  c #231D19",
"4  c #311F11",
"5  c #3D210C",
"6  c #26221F",
"7  c #332113",
"8  c #3E2512",
"9  c #3E2916",
"0  c #35261A",
"q  c #372A1E",
"w  c #3B2A1B",
"e  c #242424",
"r  c #292624",
"t  c #2D2926",
"y  c #2C2C2C",
"u  c #302C2A",
"i  c #34312E",
"p  c #3E342C",
"a  c #2F3030",
"s  c #353434",
"d  c #3A3735",
"f  c #3D3935",
"g  c #373838",
"h  c #3D3D3D",
"j  c #43220B",
"k  c #4A260B",
"l  c #532A0D",
"z  c #5E2F0D",
"x  c #5E300F",
"c  c #412612",
"v  c #422A15",
"b  c #4A2E16",
"n  c #432C19",
"m  c #5B2F10",
"M  c #47321D",
"N  c #49311F",
"B  c #5C3313",
"V  c #5A3619",
"C  c #64320E",
"Z  c #6A350E",
"A  c #70370E",
"S  c #613413",
"D  c #673814",
"F  c #633A1A",
"G  c #733A11",
"H  c #7D3E11",
"J  c #503620",
"K  c #403932",
"L  c #403F3D",
"P  c #794117",
"I  c #7F4418",
"U  c #5F4125",
"Y  c #42403F",
"T  c #654526",
"R  c #6B4422",
"E  c #674729",
"W  c #6A4929",
"Q  c #754924",
"!  c #7C4D26",
"~  c #775331",
"^  c #3F4040",
"/  c #434343",
"(  c #474748",
")  c #4C4C4C",
"_  c #545454",
"`  c #5C5C5C",
"'  c #646464",
"]  c #696969",
"[  c #803F11",
"{  c #834112",
"}  c #8B4513",
"|  c #8D4816",
" . c #834618",
".. c #86491B",
"X. c #8E4C1A",
"o. c #904D1B",
"O. c #91501E",
"+. c #8B4E20",
"@. c #8C5224",
"#. c #84552C",
"$. c #8B5529",
"%. c #8D592B",
"&. c #935423",
"*. c #965927",
"=. c #965A29",
"-. c #985E2E",
";. c #815831",
":. c #8C5B30",
">. c #915E31",
",. c #9A602F",
"<. c #936133",
"1. c #9B6534",
"2. c #9D6836",
"3. c #96673A",
"4. c #9C6B3C",
"5. c #A06D3D",
/* pixels */
"                                      % X . + % % = % X . X %                                       ",
"                            . X % = y ( g e y / ) ( / y e g ( y = % X .                             ",
"                    = = = = = y ^ ) ` ] ' ` h s ^ ^ s h ` ' ' ` ) ^ y 3 * = = *                     ",
"                = y ) _ ` _ _ / h ^ ( ( ( ( L s e e s h ( ) ( ( h h / _ _ ` _ ( a =                 ",
"              X y ` ] ] ] ] ' _ g e % 0 0 7 4 < > > 0 0 7 < 2 # 6 h _ ' ] ] ] ` / a e               ",
"          = e e i ) ` ` _ ) Y K 4 > c ;.%...{ {  .@.-.%.{ [ A 1 < t f Y ) ( ( Y y ( / s e           ",
"        * ^ ` _ ) i h L K 9 c z G [ +.2.<.o.| } X.*.2.-.} } } { +.;.R n 4 2 & e _ ] ' ` h %         ",
"      % a ) ' ' _ K t J ~ $. .[ } } +.2.,.o.} } | *.1.-.} } } } =.1.%. .G Z j 0 / ` ] ' / % .       ",
"    X s _ ] ] ` Y # S ..-.-.o.} } } o.5.<.O.} } | *.1.-.} } } } *.1.*.o.} } [ x # ^ _ ) h y & .     ",
"    X e / ` ` ) p , A +.5.-.o.} } } o.1.1.X.} } } *.1.-.} } } } &.5.*.o.} } } G c K K d Y ( a X     ",
"  = r a s s y 3 1 H } &.-.-.o.} } } o.5.-.o.} } | *.1.-.} } } } *.-.*.o.} } | o.3.N u ( ' ' ) a =   ",
". a _ ] _ y O , z } } &.5.-.o.} } } o.5.<.o.} } X.&.1.>.} } } } &.5.*.o.[ } | &.5.R N f ) ` ] _ y . ",
". a _ ] _ y < z } } } O.1.-.o.[ } } O.2.1.o.| } | *.1.-.} } } } *.,.=.o.} } } &.5.&.V 4 u _ ] _ a . ",
". y ) ' _ u < z } } } &.2.-.o.} } } O.2.-.O.} } | *.1.-.} } } } *.-.=.o.} } | O.5.*.S > t _ ' ) y . ",
". % a g y * : z } } } O.1.-.o.} } | O.2.-.O. .} | *.1.-.} } } } =.5.-.o.} } | &.5.*.S > * y s y % . ",
". % y g y & : z } } } &.2.>.o.} } | o.2.-.o.} } | *.1.-.} } } } =.,.=.o.[ } | @.5.*.S > = y s y * . ",
". a _ ] _ u < z } } } O.5.-.o.} } | o.2.,.O.} } X.*.1.-.} } } } *.1.*.o.} } | &.5.=.B 4 u _ ] _ y . ",
". y _ ] _ u < z } } } &.-.-.o.} } } o.2.<.o.} } X.&.1.-.} } } } *.1.=.o.[ } } +.4.&.S > u _ ] _ y . ",
". y ) ` ) t < z } } } o.5.=.o.[ } } &.2.1.o.} } X.&.1.-.} } } } *.1.>.I z < c n w n 2 $ y ) ` ( y . ",
". % y y r & : z } } } o.5.-.X.} } } o.2.<.X.| } | *.1.-.} } } } *.1.-.H 1 = Y / X g g = % y a y % . ",
". = s / s 3 : z } } } O.1.-.X.} } } O.2.-.X.} } | *.1.-.} } } } &.5.*.H 5 & u d + u t * = s Y s * . ",
". a _ ] _ u < z } } } &.2.-.o.} } } O.2.<.O.} } | *.1.-.} } } } &.5.*.| A z z D W F 5 ; y _ ] _ y . ",
". y _ ] _ u < z } } } O.2.-.X.} } } &.2.1.o.| } | *.1.-.} } } } *.,.-.o.} } | O.5.*.S < u _ ] _ a . ",
". y ) ` ) t < z } } } &.1.-.X.} } } o.2.-.o.} } | *.1.-.} } } } =.1.=.o.[ } | &.5.=.S 2 t ) ` ) r . ",
". % y s y & : m } } } &.1.-.X.} } | o.2.1.X.} } | &.1.-.} } } } *.1.*.o.} } | &.5.=.S : & y s y % . ",
". e ^ ) h 6 < z } } [ ..:.#.I H H } o.2.-.X.| } | *.1.-.} } } } *.1.=.o.} } | O.5.=.S > 6 ^ ( ^ e . ",
". y _ ] _ u < z } [ k < ; $ ; - 1 Z o.5.-.+.} } X.=.1.-.} } } } *.1.*.o.[ } | &.5.*.S < y _ ] _ y . ",
". a _ ] _ u < z } } Z k : o O , z G o.5.<.o.| } | &.1.>.} } } } *.1.=.o.} } | O.5.*.S < u _ ] _ y . ",
". e ( _ ( e > z } H 1 c T Q S k 1 z X.1.-.O.| } | *.1.-.} } } } *.,.=.o.} } | &.5.*.S < r ( _ ( r . ",
". % 6 y 6 % : z } H 1 c E ! D j 1 z O.2.-.O.} } | *.1.-.} } } } *.-.=.o.[ } | O.5.*.S : & = y e % . ",
". e Y _ Y 3 > z } } G S b 8 7 l Z H O.2.-.O. .} X.*.1.-.} } } } &.5.=.o.} } | &.5.*.S > e / ) ^ e . ",
". y _ ] _ u < z } } | X.#.! H H } } O.2.-.o.} } } *.1.-.} } } } &.5.=.o.} } | @.5.*.S < u _ ] _ y . ",
". a _ ] _ u 2 z } } } &.2.-.o.} } } O.2.<.o.} } X.*.1.-.} } } } *.1.*.o.[ } | O.5.=.S < u _ ] _ y . ",
". e / ) Y 6 < z } } } O.1.-.o.} } } O.2.<.o.X.} | &.1.-.} } } } *.1.*.X.} } | &.5.=.S < 6 ^ ) / e . ",
". X = y 6 & : z } } } &.1.-.o.} } } o.2.,.o.} } | *.1.-.} } } } *.1.=.o.} } } &.5.=.Z : & = y = % . ",
". r ( ` ( e > z } } } O.1.-.o.} } } &.2.1.o.} } | *.1.-.} } } } *.1.=.X.} } | @.5.=.S < r ( ` ( e . ",
". a _ ] _ u < z } } | O.1.-.o.} } } O.2.<.X.} } | *.2.-.} } } } *.1.=.o.} } | &.5.*.S < u _ ] _ y . ",
". a _ ] _ u < z } } } O.2.-.o.} } } O.2.1.o.} } | *.1.-.} } } } *.1.=.X.} } | O.5.*.S 4 u _ ] _ y . ",
". e ^ ) ^ e > z } } | O.5.-.o.[ } } O.2.,.o.} } | *.1.-.} } } } *.1.*.o.} } | &.5.*.S 2 6 / ) / e . ",
". % e a r * : z } } [ o.5.-.o.} } | O.2.,.o.| } | &.1.>.} } } } *.1.=...Z l l B U V 1 $ % e a r % . ",
". t ) ' ) t < z } } } O.5.-.o.[ } } O.2.-.X.} } X.&.1.-.} } } } =.1.=.P 5 * d K # i u = y _ ` _ y . ",
". y _ ] _ u < z } } | O.1.-.o.| } } O.2.1.+.} } | *.1.-.} } } } =.1.=.H 1 = Y / X g d e y _ ] _ y . ",
". a _ ] _ u < z } } } &.5.,.o.[ } } O.2.-.o.| } | *.1.-.} } } } *.1.-. .m 5 5 c N v > # t _ ' _ y . ",
". = y h a * > z } } } O.1.,.O.[ } | O.2.<.o.| } X.&.1.=.} } } } *.1.*.X.} { } +.3.&.m : = a g a * . ",
". % e a 6 & : z | | [ &.1.,.o.[ } | o.2.-.o.} } | &.1.>.} } } } *.1.=.o.} } | &.5.*.S : & y y e % . ",
". y _ ' _ t , z | [ o.&.1.,.o.| } } o.2.<.o.| } | *.2.-.} } } } *.<.=.o.} } | O.5.*.S < u ) ` _ y . ",
". y _ ] _ u , C } } [ &.2.,.o.[ | | +.4.1.o.| } | *.2.-.} } } } =.1.=.o.| | | &.5.=.S < u _ ] _ y . ",
". y ) ' ) r , Z [ [ [ o.,.*.o.[ { { ..>.=.| [ [  .@.>.%.{ { { [ @.>.@.| [ [ { +.3.@.m > t _ ` _ y . ",
". % e y e % o - 1 1 1 5 v v 1 1 1 1 5 v v 5 1 1 1 8 v c 1 1 1 1 c n 8 5 1 1 1 5 n c - o % e y e % . ",
". . . . . . . . . . . . . . . . . . . . . . . . . . . . . . . . . . . . . . . . . . . . . . . . . . "
};
