/* XPM */
static char *efd4b0c4c095476cbd28fc0d14a74cacL2EOcejU1X7OXNiy[] = {
/* columns rows colors chars-per-pixel */
"50 50 139 2 ",
"   c None",
".  c #000000",
"X  c #0B0608",
"o  c #0E080A",
"O  c #120A0D",
"+  c #1C130F",
"@  c #2A1C16",
"#  c #311E32",
"$  c #372034",
"%  c #420D25",
"&  c #510F2D",
"*  c #451E2D",
"=  c #53112E",
"-  c #531C2D",
";  c #5E0F32",
":  c #461A34",
">  c #571230",
",  c #5F1134",
"<  c #611436",
"1  c #6E1A34",
"2  c #47202E",
"3  c #412530",
"4  c #4E2632",
"5  c #492936",
"6  c #442839",
"7  c #582030",
"8  c #562C35",
"9  c #582D36",
"0  c #532F3C",
"q  c #5E363E",
"w  c #612539",
"e  c #68283C",
"r  c #7A2F3E",
"t  c #62363E",
"y  c #643A3E",
"u  c #7A303E",
"i  c #70413B",
"p  c #563140",
"a  c #5C3441",
"s  c #772E46",
"d  c #782F47",
"f  c #643A42",
"g  c #6C3E44",
"h  c #7E3845",
"j  c #764445",
"k  c #7C4A45",
"l  c #7F534E",
"z  c #862139",
"x  c #882239",
"c  c #9C293A",
"v  c #A72D3A",
"b  c #A82E3B",
"n  c #A9313D",
"m  c #8A2A40",
"M  c #AD3D49",
"N  c #814B46",
"B  c #8B4E47",
"V  c #854D49",
"C  c #82534D",
"Z  c #8C514A",
"A  c #895A51",
"S  c #925D53",
"D  c #B4454B",
"F  c #94614E",
"G  c #9C6757",
"H  c #91625A",
"J  c #9E6858",
"K  c #A56C59",
"L  c #AA6E5A",
"P  c #AA715F",
"I  c #B5775F",
"U  c #B6785F",
"Y  c #B9795E",
"T  c #825770",
"R  c #825871",
"E  c #9A6B6E",
"W  c #956A7A",
"Q  c #AA6F67",
"!  c #AB7260",
"~  c #A27468",
"^  c #A5796D",
"/  c #B77860",
"(  c #BA7B61",
")  c #AB7F72",
"_  c #C0784A",
"`  c #C37D59",
"'  c #AC8072",
"]  c #B58978",
"[  c #BC8F7D",
"{  c #C68562",
"}  c #C68269",
"|  c #CA846B",
" . c #CF896E",
".. c #D68F71",
"X. c #DB9474",
"o. c #DF9878",
"O. c #8E6F85",
"+. c #9F7586",
"@. c #9E7D8A",
"#. c #A78281",
"$. c #AF918D",
"%. c #B0938F",
"&. c #AD8894",
"*. c #A48595",
"=. c #ACADBA",
"-. c #B4A5B0",
";. c #B8B1B7",
":. c #B9B3B9",
">. c #D89481",
",. c #E69F89",
"<. c #DDA185",
"1. c #DBAD92",
"2. c #DBB195",
"3. c #E7A08A",
"4. c #EDB18F",
"5. c #E2B396",
"6. c #EEB290",
"7. c #E4B698",
"8. c #EEBD9E",
"9. c #F5BF9F",
"0. c #C89CA1",
"q. c #F3C4A3",
"w. c #F9C4A0",
"e. c #FACAA7",
"r. c #F7CCAC",
"t. c #FFCFAA",
"y. c #FFD1AB",
"u. c #E5C6B2",
"i. c #E9CEBB",
"p. c #D4C7C9",
"a. c #D6C9CC",
"s. c #C7CBD1",
"d. c #C8CED3",
"f. c #F1E0D3",
"g. c #FFF5DE",
"h. c #DDE6E6",
"j. c #DEE8E8",
"k. c #E0EAEA",
"l. c #FFFEFB",
/* pixels */
"                            l l G / / I I / I I I I I I U I I I                                     ",
"                            l l G / I I I I I I I I I I / I I I                                     ",
"                            C C G / I I / / / / U / U U U / U U                                     ",
"                          4 f y C J G G G G G J G G J G G G J J                                     ",
"                      2 2 2 2 2 y l l l l l l l l l l l l l l H I I                                 ",
"                      2 2 2 2 * y l l l l l l l l l l l l l l S U /                                 ",
"                      2 2 2 2 * y l l l l l l l l l l l l l l S / P                                 ",
"                  2 2 2 2 2 2 2 y l l l l l C l l l l l l l l l A A                                 ",
"                  2 2 2 2 2 2 * y l l l l l l l l l l l l l l l l l                                 ",
"                  2 2 2 2 2 2 * y l l l l l l l l l l l l l l l C l                                 ",
"                  2 2 2 2 2 2 * j ! ! P L ! ! P P P P P P H l l l l                                 ",
"                  2 2 2 2 2 2 * S o.X.X.X...X.X.X.X.X.X.X.                                          ",
"                  2 2 2 2 2 2 * S X...X.X...X.X.X.X.X.X...                                          ",
"                  2 2 2 2 2 * * S o.X.o.o.X.o.X.X.X.X.o.o.                                          ",
"                  2 2 2 2 2 2 * ~ w.w.w.w.w.w.w.w.w.w.w.w.                                          ",
"                  2 2 2 2 2 2 * ^ y.t.t.y.t.y.t.y.y.y.y.y.                                          ",
"                  2 2 2 2 2 * * ^ y.y.y.t.t.t.t.t.t.t.y.y.                                          ",
"                  2 2 2 2 4 j k H ^ ' q.y.t.t.t.t.y.1.^ ^             I                             ",
"                  2 2 2 * 8 L / k * 8 2.y.t.t.t.t.y.] * *           I / I                           ",
"                  2 2 * * 8 L ( k * 9 5.y.t.t.t.t.y.] * 2           I I I                           ",
"                  2 2 2 * 8 L ( C 8 f 7.y.y.t.t.y.y.[ 9 9           I I I                           ",
"                      2 * 8 ( ..<.5.5.e.y.y.t.t.t.t.q.5.5.          I I I                           ",
"                      2 * 9 | X.6.y.y.t.t.t.t.t.t.t.y.y.y.          I I /                           ",
"                      * * 8 | ..6.y.y.t.t.t.t.t.t.t.t.y.y.          I I I       l.l.l.              ",
"              t.      N k Z  .X.6.t.t.t.t.t.t.t.t.t.t.t.t.          / I I       l.f.u.              ",
"            t.t.t.    / / ( ..X.6.y.t.t.t.t.t.t.t.t.t.y.t.          I I I           Y { U P I ( Y I ",
"            y.y.y.    / / ( ..X.6.y.t.y.t.y.t.t.t.t.y.y.y.          U U U         i.2.{             ",
"            9.9.9.    L L P | | <.8.8.8.8.q.r.r.r.r.q.8.8.          L L L       l.l.l.              ",
"            D D D     - - - 7 - e d d d s W ;.;.:.:.@.s d           9 9 9                           ",
"            b b b     % % % % % & < , < , R =.=.=.=.O., <           * * *                           ",
"            b b b     % % % % % & < < < ; T =.=.=.=.O.< <           * * *                           ",
"                  < < > > > = & 1 x m +.*.-.s.s.s.d.&.x x c b b v n Q ) )                           ",
"                  < < < < < < < z b M a.k.k.h.h.h.k.0.v b b b b b n 3.y.y.                          ",
"                  < < < < < < < z v M p.k.h.h.h.h.h.0.v b b b n b n 3.y.y.                          ",
"                  < < < < < < < z v M p.h.h.h.h.h.k.0.v b b b b b n >.q.8.                          ",
"                      < < < < < z v M p.h.h.h.h.h.k.0.v b           q q t                           ",
"                      < < < < < x b M p.h.h.h.h.h.h.0.b b           * * 2                           ",
"g.g.                  < < < < < x b M a.j.h.h.h.h.h.0.v b           * 2 *                           ",
"g.g.g.                : : : : : w r h #.%.$.$.$.$.$.E r u           C V C                           ",
"g.g.                  # # # # $ 6 p p N B B B B B B j 0 p           Y / /                           ",
"              g.g.    $ # # # # 6 p a V Z Z Z Z Z Z j p p           I I I                           ",
"            g.g.g.    $ $ $ $ $ 6 p p V Z Z Z Z V B j a a           I I I                           ",
"              g.      p 0 p 0 0 p               a a g V V           I / I                           ",
"                      p p p p p                 p p g Z Z           I I I                           ",
"      g.g.            p p p p p                 p p g Z Z           I I I                           ",
"      g.g.            j j j                     p p f               I I I                           ",
"      g.g.            Z Z Z                     p p p               I I I                           ",
"                      Z Z Z                     p p p               / U /                           ",
"                      i N k                     5 0 3               F L F                           ",
"                                  . . . . . . . o O X . . . . .     + @                             "
};
