/* XPM */
static char *a6e082c376bb4d76c551f638879dc928M4QuUycuAPrvM9Im[] = {
/* columns rows colors chars-per-pixel */
"50 50 31 1 ",
"  c #323B4C",
". c #374153",
"X c #394255",
"o c #3B4559",
"O c #3F495E",
"+ c #3F4A60",
"@ c #404A5F",
"# c #424E64",
"$ c #455067",
"% c #465269",
"& c #49556D",
"* c #4B5771",
"= c #4D5A73",
"- c #4F5D78",
"; c #515E76",
": c #515F7A",
"> c #54627D",
", c #576582",
"< c #596783",
"1 c #5B6986",
"2 c #5C6B8A",
"3 c #606F8D",
"4 c #61708E",
"5 c #657493",
"6 c #687796",
"7 c #697897",
"8 c #677798",
"9 c #6C7B9B",
"0 c #6F7FA0",
"q c #6F80A0",
"w c #7181A2",
/* pixels */
"$#OX                    @@#@@                     ",
"$#@oXX...X.X...@.@.  @@ .@@@@......X...@X.X. @XXX.",
"##$$%%$%%$$$%&%&&&$$%$$$@$@$%&@$%%%%%%$&%&#%$$%%@&",
"#$&->>1>1>11>>>>>>>>3>>>;&%&;>>>>1,<>1>>>>>>3>>>>>",
"@$;>779777777766q7777795>;%;>67q77777777q777777799",
"#$>3qww9999999997q999www5;%;4wwq99999999qq99990www",
"#$;49w9755666566677479w95;&;4wwq885785555764557qww",
"#$;3795422222222>43335794;&;>77432222222>4333357ww",
"@#&>33>>>>>;>>>>>>;;>>4>>&@$;>5>>>;>>>>,>>-;->,144",
".X@$&&&$#$#$&=&&$##@%%;%%@.@%&&;$#@$$%*&*$$$$$%*&;",
"..XoooooXXXo@$$#@X..@@@@@@ @@@@@XoXoo#$$+Oo.oooO@@",
"@@@@@@@o@@@@##$@@@@@@@@@@@@@@@@@@@@@@###+OOOOOOO@@",
">;>;;;>;>;;=%$$%&;;;;;;;;;;;&;;;>;;;=%$$*=;;;-;;=;",
"444444444443>&&>345554455554>74544541>&&;145545444",
"qq7qq99qqqq6>=&>5qq9997qq7q77qqq9qqq7>&&>4qqq99999",
"666666669qq7>=&>7ww777666667757569qqq>==>6qq988877",
"2332323357q5>&*>5995332233333223358q8<&&,6q7533244",
"222222213675>*&>46542122222,222223885,&&>5q5222212",
"2,2,22122564>;%=>33>21222222,22222454>&&:354222122",
"222,22222341>&%%=>>><2212,,2222222341:&&-142222222",
",,,,,,,,,,,>=%$+@%&>>><<,,,,,,,,,<<<>;%%*:,,,,,,,,",
",,,+****=***$Ooo@@@#*;****,,,++,*&**&+OO+%******+-",
"=,++OOoOOOooo... .X@@@@@++**++++OOOOOXXXOoOOOOOO++",
"++++oooooooooXXX@.@.Xo.o+++++ooXXooooXXXoooooooo.+",
"+++%%%%%%%%%%&%&%&%%%%%$*+$+%%%%+*&%%%&%%%%%%%&+++",
"+*&-<1111<1111113>311111,-$&-,11<,11111>111>111<24",
"++,257q788889796779799962-%*17998qq8q6q6qqq6qq87qq",
"+*-3qqqq0800999999779qwq2-&-39w0q888q66qq666q6qqqq",
"+$=4qq9555585555544559q94;&;39q984555553355555qqqq",
"$$;277532,2,2222132225793=&=17952222222211112248qq",
"+%-18842,,,,,,11211125662;&=157522,2222222122248qq",
"+%=,3542,,*-,,12222222441=%=,35322222,,222<2222442",
"$%&>1221>=*%;,1221112222>-+->121112<11112122,22222",
"O+$&=>>>=%+$*-,>>>:::-::&+++&;:>::::>>>>>>>>:::->,",
"XoOO#$$$+oXo+***%+%++++++++++$$$++++%&==*$++++++++",
"..XXoooXoooo+%$+OooX+o++o...XXXX+oO+o@$$+OOo+oo+.o",
"OOoOOO@@@oO@++$++OOO+++++OOOOOOO++oO@###@@OO+OOO+O",
"::>=;>;;>;>;*$$*&&--------;=;;;;-:>==&$$&&>>:-;:--",
"544344444551>%%:2q444q44q142545154541>&&>>44445544",
"qqqqqqq7qqw5>**>4qq4qq4qqqqqqqqqqqqq6>&&>6qqqq7q4q",
"88888858qqq5>=&>2qqqq4qq2qqqqqqq78qq7<**>7qq7766qq",
"3222332246q6>;=>2qq2222222,2,2,2447q7<&*>6qq444422",
"222222223575>&&>qqq222222222,,2,225q5>*&>4q7321122",
"22,222223454>&&>2q2222,222,2222,22554>*&>34422<121",
"22,222222341>%%>,222,222,2,222222233,-%*-,22221212",
",,,,<,,,<11>;%%&,,22,2,2,2,,<2,2,<,2,-%+*,2,11,,11",
",,,-::::::;=&%%&--------:-::::::,,---*+&&--,,-,-::",
"++-+*&*&*&&&%$$%&*****&**&**&&&&++**&&&+&+&&&&&&&=",
"+-=+=+=+&&++&++&+&&%+%%%$$$%$%$#+*+*+*+*&+*&&+%+&+",
"++++++&++++&+&&++++%%+++$$+##+##++*+++&+++++%+%++%"
};
